<svg xmlns="http://www.w3.org/2000/svg" viewBox="0 0 288 288"><defs><filter id="gray-off"><feColorMatrix type="saturate" values="0"/><feComponentTransfer><feFuncR type="linear" slope="0.7"/><feFuncG type="linear" slope="0.7"/><feFuncB type="linear" slope="0.7"/></feComponentTransfer></filter></defs><g filter="url(#gray-off)" opacity="0.4"><defs><linearGradient id="g" x1="0" y1="0" x2="288" y2="288" gradientUnits="userSpaceOnUse">
<stop offset="0" stop-color="#A855F7"/><stop offset=".5" stop-color="#6366F1"/><stop offset="1" stop-color="#22D3EE"/>
</linearGradient><filter id="glow" x="-50%" y="-50%" width="200%" height="200%">
<feGaussianBlur stdDeviation="6" result="b"/><feMerge><feMergeNode in="b"/><feMergeNode in="SourceGraphic"/></feMerge>
</filter></defs><rect x="14" y="14" width="260" height="260" rx="40" fill="#0B0E1A"/>
<rect x="14" y="14" width="260" height="260" rx="40" fill="none" stroke="url(#g)" stroke-width="5" filter="url(#glow)"/><g><path d="M 155.70 48.72 A 96 96 0 0 1 220.67 86.23 L 174.35 121.13 A 38 38 0 0 0 148.63 106.28 Z" fill="#a855f7" stroke="#a855f7" stroke-width="16" stroke-linejoin="round" stroke-linecap="round"/><path d="M 232.37 106.49 A 96 96 0 0 1 232.37 181.51 L 178.98 158.85 A 38 38 0 0 0 178.98 129.15 Z" fill="#8c5bf4" stroke="#8c5bf4" stroke-width="16" stroke-linejoin="round" stroke-linecap="round"/><path d="M 220.67 201.77 A 96 96 0 0 1 155.70 239.28 L 148.63 181.72 A 38 38 0 0 0 174.35 166.87 Z" fill="#7062f2" stroke="#7062f2" stroke-width="16" stroke-linejoin="round" stroke-linecap="round"/><path d="M 132.30 239.28 A 96 96 0 0 1 67.33 201.77 L 113.65 166.87 A 38 38 0 0 0 139.37 181.72 Z" fill="#567bf0" stroke="#567bf0" stroke-width="16" stroke-linejoin="round" stroke-linecap="round"/><path d="M 55.63 181.51 A 96 96 0 0 1 55.63 106.49 L 109.02 129.15 A 38 38 0 0 0 109.02 158.85 Z" fill="#3ba7ef" stroke="#3ba7ef" stroke-width="16" stroke-linejoin="round" stroke-linecap="round"/><path d="M 67.33 86.23 A 96 96 0 0 1 132.30 48.72 L 139.37 106.28 A 38 38 0 0 0 113.65 121.13 Z" fill="#22d3ee" stroke="#22d3ee" stroke-width="16" stroke-linejoin="round" stroke-linecap="round"/>
<circle cx="144" cy="144" r="26" fill="#0B0E1A"/>
</g></g></svg>